%TF.GenerationSoftware,KiCad,Pcbnew,10.0.1*%
%TF.CreationDate,2026-05-05T17:54:13+02:00*%
%TF.ProjectId,power_injector_rev_c,706f7765-725f-4696-9e6a-6563746f725f,rev?*%
%TF.SameCoordinates,Original*%
%TF.FileFunction,Copper,L1,Top*%
%TF.FilePolarity,Positive*%
%FSLAX46Y46*%
G04 Gerber Fmt 4.6, Leading zero omitted, Abs format (unit mm)*
G04 Created by KiCad (PCBNEW 10.0.1) date 2026-05-05 17:54:13*
%MOMM*%
%LPD*%
G01*
G04 APERTURE LIST*
G04 Aperture macros list*
%AMRoundRect*
0 Rectangle with rounded corners*
0 $1 Rounding radius*
0 $2 $3 $4 $5 $6 $7 $8 $9 X,Y pos of 4 corners*
0 Add a 4 corners polygon primitive as box body*
4,1,4,$2,$3,$4,$5,$6,$7,$8,$9,$2,$3,0*
0 Add four circle primitives for the rounded corners*
1,1,$1+$1,$2,$3*
1,1,$1+$1,$4,$5*
1,1,$1+$1,$6,$7*
1,1,$1+$1,$8,$9*
0 Add four rect primitives between the rounded corners*
20,1,$1+$1,$2,$3,$4,$5,0*
20,1,$1+$1,$4,$5,$6,$7,0*
20,1,$1+$1,$6,$7,$8,$9,0*
20,1,$1+$1,$8,$9,$2,$3,0*%
%AMOutline5P*
0 Free polygon, 5 corners , with rotation*
0 The origin of the aperture is its center*
0 number of corners: always 5*
0 $1 to $10 corner X, Y*
0 $11 Rotation angle, in degrees counterclockwise*
0 create outline with 5 corners*
4,1,5,$1,$2,$3,$4,$5,$6,$7,$8,$9,$10,$1,$2,$11*%
%AMOutline6P*
0 Free polygon, 6 corners , with rotation*
0 The origin of the aperture is its center*
0 number of corners: always 6*
0 $1 to $12 corner X, Y*
0 $13 Rotation angle, in degrees counterclockwise*
0 create outline with 6 corners*
4,1,6,$1,$2,$3,$4,$5,$6,$7,$8,$9,$10,$11,$12,$1,$2,$13*%
%AMOutline7P*
0 Free polygon, 7 corners , with rotation*
0 The origin of the aperture is its center*
0 number of corners: always 7*
0 $1 to $14 corner X, Y*
0 $15 Rotation angle, in degrees counterclockwise*
0 create outline with 7 corners*
4,1,7,$1,$2,$3,$4,$5,$6,$7,$8,$9,$10,$11,$12,$13,$14,$1,$2,$15*%
%AMOutline8P*
0 Free polygon, 8 corners , with rotation*
0 The origin of the aperture is its center*
0 number of corners: always 8*
0 $1 to $16 corner X, Y*
0 $17 Rotation angle, in degrees counterclockwise*
0 create outline with 8 corners*
4,1,8,$1,$2,$3,$4,$5,$6,$7,$8,$9,$10,$11,$12,$13,$14,$15,$16,$1,$2,$17*%
G04 Aperture macros list end*
%TA.AperFunction,SMDPad,CuDef*%
%ADD10R,1.300000X1.500000*%
%TD*%
%TA.AperFunction,ComponentPad*%
%ADD11R,1.700000X1.700000*%
%TD*%
%TA.AperFunction,ComponentPad*%
%ADD12C,1.700000*%
%TD*%
%TA.AperFunction,ComponentPad*%
%ADD13O,3.600000X1.800000*%
%TD*%
%TA.AperFunction,ComponentPad*%
%ADD14RoundRect,0.250000X-1.550000X0.650000X-1.550000X-0.650000X1.550000X-0.650000X1.550000X0.650000X0*%
%TD*%
%TA.AperFunction,SMDPad,CuDef*%
%ADD15R,1.500000X1.300000*%
%TD*%
%TA.AperFunction,SMDPad,CuDef*%
%ADD16R,1.200000X1.200000*%
%TD*%
%TA.AperFunction,ComponentPad*%
%ADD17RoundRect,0.250000X1.550000X-0.650000X1.550000X0.650000X-1.550000X0.650000X-1.550000X-0.650000X0*%
%TD*%
%TA.AperFunction,ComponentPad*%
%ADD18O,2.184400X4.368800*%
%TD*%
%TA.AperFunction,ComponentPad*%
%ADD19O,4.368800X2.184400*%
%TD*%
%TA.AperFunction,ComponentPad*%
%ADD20Outline8P,-0.609600X0.252505X-0.252505X0.609600X0.252505X0.609600X0.609600X0.252505X0.609600X-0.252505X0.252505X-0.609600X-0.252505X-0.609600X-0.609600X-0.252505X270.000000*%
%TD*%
%TA.AperFunction,SMDPad,CuDef*%
%ADD21R,2.400000X2.400000*%
%TD*%
%TA.AperFunction,Conductor*%
%ADD22C,1.000000*%
%TD*%
%TA.AperFunction,Conductor*%
%ADD23C,0.200000*%
%TD*%
G04 APERTURE END LIST*
D10*
%TO.P,R4,1,1_1*%
%TO.N,Net-(J1-Pin_1)*%
X172750000Y-104720000D03*
%TO.P,R4,2,2_2*%
%TO.N,Net-(J1-Pin_2)*%
X174650000Y-104720000D03*
%TD*%
D11*
%TO.P,J1,1,Pin_1_1*%
%TO.N,Net-(J1-Pin_1)*%
X167905000Y-104355000D03*
D12*
%TO.P,J1,2,Pin_2_2*%
%TO.N,Net-(J1-Pin_2)*%
X170445000Y-104355000D03*
%TD*%
D13*
%TO.P,J8,4,Pin_4_4*%
%TO.N,GND*%
X117272500Y-110630000D03*
%TO.P,J8,3,Pin_3_3*%
%TO.N,Net-(J1-Pin_2)*%
X117272500Y-106820000D03*
%TO.P,J8,2,Pin_2_2*%
%TO.N,Net-(J1-Pin_1)*%
X117272500Y-103010000D03*
D14*
%TO.P,J8,1,Pin_1_1*%
%TO.N,Net-(J8-Pin_1)*%
X117272500Y-99200000D03*
%TD*%
D15*
%TO.P,R3,1,1_1*%
%TO.N,Net-(LED1-PadA)*%
X163190000Y-106140000D03*
%TO.P,R3,2,2_2*%
%TO.N,+24V*%
X163190000Y-108040000D03*
%TD*%
%TO.P,R1,1,1_1*%
%TO.N,Net-(LED2-PadA)*%
X157700000Y-106200000D03*
%TO.P,R1,2,2_2*%
%TO.N,Net-(J8-Pin_1)*%
X157700000Y-108100000D03*
%TD*%
D16*
%TO.P,LED2,A,A_A*%
%TO.N,Net-(LED2-PadA)*%
X157620000Y-103200000D03*
%TO.P,LED2,C,C_C*%
%TO.N,GND*%
X157620000Y-101100000D03*
%TD*%
%TO.P,LED1,A,A_A*%
%TO.N,Net-(LED1-PadA)*%
X163270000Y-103370000D03*
%TO.P,LED1,C,C_C*%
%TO.N,GND*%
X163270000Y-101270000D03*
%TD*%
D17*
%TO.P,J9,1,Pin_1_1*%
%TO.N,Net-(J8-Pin_1)*%
X179727500Y-110560000D03*
D13*
%TO.P,J9,2,Pin_2_2*%
%TO.N,Net-(J1-Pin_1)*%
X179727500Y-106750000D03*
%TO.P,J9,3,Pin_3_3*%
%TO.N,Net-(J1-Pin_2)*%
X179727500Y-102940000D03*
%TO.P,J9,4,Pin_4_4*%
%TO.N,GND*%
X179727500Y-99130000D03*
%TD*%
D18*
%TO.P,J4,1,1_1*%
%TO.N,GND*%
X145490000Y-100040000D03*
D19*
%TO.P,J4,2,2_2*%
X148490000Y-104840000D03*
D18*
%TO.P,J4,3,3_3*%
%TO.N,Net-(D1-PadA)*%
X151490000Y-100040000D03*
%TD*%
D20*
%TO.P,F3,1,1_1*%
%TO.N,+24V*%
X131310000Y-102790000D03*
%TO.P,F3,2,2_2*%
%TO.N,Net-(J8-Pin_1)*%
X131310000Y-107870000D03*
%TD*%
D21*
%TO.P,D1,A,A_A*%
%TO.N,Net-(D1-PadA)*%
X135660000Y-99540000D03*
%TO.P,D1,C,C_C*%
%TO.N,+24V*%
X131260000Y-99540000D03*
%TD*%
%TO.N,Net-(J8-Pin_1)*%
D22*
X131310000Y-107870000D02*
X133112400Y-106067600D01*
X133112400Y-106067600D02*
X133112400Y-97687600D01*
X133112400Y-97687600D02*
X118784900Y-97687600D01*
X118784900Y-97687600D02*
X117272500Y-99200000D01*
%TO.N,+24V*%
X131310000Y-102790000D02*
X131310000Y-99590000D01*
X131310000Y-99590000D02*
X131260000Y-99540000D01*
%TO.N,Net-(J8-Pin_1)*%
X117272500Y-99200000D02*
X113680000Y-102792500D01*
X113680000Y-110781350D02*
X115388650Y-112490000D01*
X113680000Y-102792500D02*
X113680000Y-110781350D01*
X115388650Y-112490000D02*
X177891350Y-112490000D01*
X131310000Y-107870000D02*
X132447600Y-106732400D01*
X132447600Y-106732400D02*
X133807600Y-106732400D01*
%TO.N,+24V*%
X163190000Y-108040000D02*
X160758000Y-110472000D01*
X160758000Y-110472000D02*
X134932000Y-110472000D01*
X134932000Y-110472000D02*
X134882000Y-110522000D01*
X134882000Y-110522000D02*
X129792000Y-110522000D01*
X129792000Y-110522000D02*
X129792000Y-104308000D01*
X129792000Y-104308000D02*
X131310000Y-102790000D01*
%TO.N,Net-(J1-Pin_2)*%
D23*
X174650000Y-104720000D02*
X177507500Y-104720000D01*
X177507500Y-104720000D02*
X179697500Y-102530000D01*
%TO.N,Net-(J1-Pin_1)*%
X172750000Y-104720000D02*
X171060000Y-106410000D01*
X171060000Y-106410000D02*
X169960000Y-106410000D01*
X169960000Y-106410000D02*
X167905000Y-104355000D01*
%TO.N,Net-(J8-Pin_1)*%
D22*
X157700000Y-108100000D02*
X135175200Y-108100000D01*
X135175200Y-108100000D02*
X133807600Y-106732400D01*
%TO.N,Net-(D1-PadA)*%
X142378900Y-98346100D02*
X144165000Y-96560000D01*
X144165000Y-96560000D02*
X148010000Y-96560000D01*
X148010000Y-96560000D02*
X151490000Y-100040000D01*
%TO.N,Net-(J8-Pin_1)*%
X179697500Y-110150000D02*
X177945100Y-111902400D01*
%TO.N,Net-(LED2-PadA)*%
X157700000Y-106200000D02*
X157700000Y-103280000D01*
X157700000Y-103280000D02*
X157620000Y-103200000D01*
%TO.N,Net-(LED1-PadA)*%
X163190000Y-106140000D02*
X163190000Y-103450000D01*
X163190000Y-103450000D02*
X163270000Y-103370000D01*
%TO.N,Net-(D1-PadA)*%
X142378900Y-98346100D02*
X136853900Y-98346100D01*
X136853900Y-98346100D02*
X135660000Y-99540000D01*
%TD*%
%TA.AperFunction,Conductor*%
%TO.N,GND*%
G36*
X184031429Y-95048313D02*
G01*
X184043433Y-95058565D01*
X184446135Y-95461267D01*
X184474361Y-95516665D01*
X184475600Y-95532402D01*
X184475600Y-114274798D01*
X184456387Y-114333929D01*
X184446135Y-114345933D01*
X183843433Y-114948635D01*
X183788035Y-114976861D01*
X183772298Y-114978100D01*
X113029902Y-114978100D01*
X112970771Y-114958887D01*
X112958767Y-114948635D01*
X112727365Y-114717233D01*
X112699139Y-114661835D01*
X112697900Y-114646098D01*
X112697900Y-102728195D01*
X113027100Y-102728195D01*
X113027100Y-110845655D01*
X113030270Y-110861591D01*
X113052191Y-110971795D01*
X113075945Y-111029141D01*
X113095425Y-111076171D01*
X113101406Y-111090609D01*
X113101410Y-111090619D01*
X113172857Y-111197548D01*
X114972451Y-112997142D01*
X115079380Y-113068589D01*
X115079383Y-113068590D01*
X115079386Y-113068592D01*
X115198206Y-113117809D01*
X115324345Y-113142900D01*
X115324346Y-113142900D01*
X177955654Y-113142900D01*
X177955655Y-113142900D01*
X178081794Y-113117809D01*
X178200614Y-113068592D01*
X178307549Y-112997140D01*
X178398490Y-112906199D01*
X178469942Y-112799264D01*
X178519159Y-112680444D01*
X178544250Y-112554305D01*
X178544250Y-112425695D01*
X178521706Y-112312360D01*
X178529014Y-112250618D01*
X178549235Y-112221603D01*
X179128476Y-111642365D01*
X179183874Y-111614139D01*
X179199611Y-111612900D01*
X181309210Y-111612900D01*
X181309214Y-111612899D01*
X181403555Y-111597957D01*
X181517271Y-111540016D01*
X181607516Y-111449771D01*
X181665457Y-111336055D01*
X181680400Y-111241708D01*
X181680400Y-109878292D01*
X181665457Y-109783945D01*
X181665455Y-109783941D01*
X181607518Y-109670232D01*
X181607517Y-109670231D01*
X181607516Y-109670229D01*
X181517271Y-109579984D01*
X181517268Y-109579982D01*
X181517267Y-109579981D01*
X181517268Y-109579981D01*
X181403558Y-109522044D01*
X181403552Y-109522042D01*
X181309214Y-109507100D01*
X181309208Y-109507100D01*
X179821982Y-109507100D01*
X179802357Y-109505167D01*
X179761805Y-109497101D01*
X179633195Y-109497101D01*
X179592643Y-109505167D01*
X179573018Y-109507100D01*
X178145785Y-109507100D01*
X178051447Y-109522042D01*
X178051441Y-109522044D01*
X177937732Y-109579981D01*
X177847481Y-109670232D01*
X177789544Y-109783941D01*
X177789542Y-109783947D01*
X177774600Y-109878285D01*
X177774600Y-111107889D01*
X177755387Y-111167020D01*
X177745135Y-111179024D01*
X177437957Y-111486201D01*
X177366510Y-111593130D01*
X177366506Y-111593140D01*
X177317291Y-111711953D01*
X177308505Y-111756126D01*
X177278125Y-111810373D01*
X177221662Y-111836403D01*
X177209838Y-111837100D01*
X119126509Y-111837100D01*
X119067378Y-111817887D01*
X119030833Y-111767587D01*
X119030833Y-111705413D01*
X119055374Y-111665365D01*
X119207105Y-111513633D01*
X119332594Y-111340910D01*
X119332601Y-111340899D01*
X119429525Y-111150677D01*
X119495498Y-110947633D01*
X119495499Y-110947630D01*
X119509663Y-110858200D01*
X117832520Y-110858200D01*
X117872500Y-110708991D01*
X117872500Y-110551009D01*
X117832520Y-110401800D01*
X119509663Y-110401800D01*
X119495499Y-110312369D01*
X119495498Y-110312366D01*
X119429525Y-110109322D01*
X119332601Y-109919100D01*
X119332594Y-109919089D01*
X119207105Y-109746366D01*
X119056133Y-109595394D01*
X118883410Y-109469905D01*
X118883399Y-109469898D01*
X118693177Y-109372974D01*
X118490133Y-109307001D01*
X118490117Y-109306997D01*
X118279257Y-109273600D01*
X117500700Y-109273600D01*
X117500700Y-110069980D01*
X117351491Y-110030000D01*
X117193509Y-110030000D01*
X117044300Y-110069980D01*
X117044300Y-109273600D01*
X116265742Y-109273600D01*
X116054882Y-109306997D01*
X116054866Y-109307001D01*
X115851822Y-109372974D01*
X115661600Y-109469898D01*
X115661589Y-109469905D01*
X115488866Y-109595394D01*
X115337894Y-109746366D01*
X115212405Y-109919089D01*
X115212398Y-109919100D01*
X115115474Y-110109322D01*
X115049501Y-110312366D01*
X115049500Y-110312369D01*
X115035337Y-110401800D01*
X116712480Y-110401800D01*
X116672500Y-110551009D01*
X116672500Y-110708991D01*
X116712480Y-110858200D01*
X115035337Y-110858200D01*
X115049500Y-110947630D01*
X115054721Y-110963698D01*
X115054720Y-111025872D01*
X115018173Y-111076171D01*
X114959042Y-111095383D01*
X114899911Y-111076169D01*
X114887909Y-111065918D01*
X114362365Y-110540374D01*
X114358679Y-110533140D01*
X114352113Y-110528370D01*
X114344833Y-110505964D01*
X114334139Y-110484976D01*
X114332900Y-110469239D01*
X114332900Y-106716298D01*
X115319600Y-106716298D01*
X115319600Y-106923702D01*
X115323419Y-106942900D01*
X115360062Y-107127122D01*
X115439430Y-107318730D01*
X115439434Y-107318739D01*
X115554657Y-107491183D01*
X115701316Y-107637842D01*
X115873760Y-107753065D01*
X115873761Y-107753065D01*
X115873765Y-107753068D01*
X116013689Y-107811027D01*
X116065377Y-107832437D01*
X116065378Y-107832437D01*
X116065380Y-107832438D01*
X116268798Y-107872900D01*
X116268799Y-107872900D01*
X118276201Y-107872900D01*
X118276202Y-107872900D01*
X118479620Y-107832438D01*
X118671235Y-107753068D01*
X118843685Y-107637841D01*
X118990341Y-107491185D01*
X119105568Y-107318735D01*
X119184938Y-107127120D01*
X119225400Y-106923702D01*
X119225400Y-106716298D01*
X119184938Y-106512880D01*
X119105568Y-106321265D01*
X119074750Y-106275143D01*
X118990342Y-106148816D01*
X118843683Y-106002157D01*
X118671239Y-105886934D01*
X118671230Y-105886930D01*
X118479622Y-105807562D01*
X118344008Y-105780587D01*
X118276202Y-105767100D01*
X116268798Y-105767100D01*
X116217943Y-105777215D01*
X116065377Y-105807562D01*
X115873769Y-105886930D01*
X115873760Y-105886934D01*
X115701316Y-106002157D01*
X115701315Y-106002159D01*
X115554659Y-106148815D01*
X115554657Y-106148816D01*
X115439434Y-106321260D01*
X115439430Y-106321269D01*
X115360062Y-106512877D01*
X115330221Y-106662900D01*
X115319600Y-106716298D01*
X114332900Y-106716298D01*
X114332900Y-103104610D01*
X114352113Y-103045479D01*
X114362365Y-103033475D01*
X114489542Y-102906298D01*
X115319600Y-102906298D01*
X115319600Y-103113701D01*
X115360062Y-103317122D01*
X115439430Y-103508730D01*
X115439434Y-103508739D01*
X115554657Y-103681183D01*
X115701316Y-103827842D01*
X115873760Y-103943065D01*
X115873761Y-103943065D01*
X115873765Y-103943068D01*
X116008144Y-103998730D01*
X116065377Y-104022437D01*
X116065378Y-104022437D01*
X116065380Y-104022438D01*
X116268798Y-104062900D01*
X116268799Y-104062900D01*
X118276201Y-104062900D01*
X118276202Y-104062900D01*
X118479620Y-104022438D01*
X118671235Y-103943068D01*
X118843685Y-103827841D01*
X118990341Y-103681185D01*
X119105568Y-103508735D01*
X119184938Y-103317120D01*
X119225400Y-103113702D01*
X119225400Y-102906298D01*
X119184938Y-102702880D01*
X119167079Y-102659766D01*
X119155942Y-102632877D01*
X119105568Y-102511265D01*
X119091202Y-102489765D01*
X118990342Y-102338816D01*
X118843683Y-102192157D01*
X118671239Y-102076934D01*
X118671230Y-102076930D01*
X118479622Y-101997562D01*
X118344008Y-101970587D01*
X118276202Y-101957100D01*
X116268798Y-101957100D01*
X116217943Y-101967215D01*
X116065377Y-101997562D01*
X115873769Y-102076930D01*
X115873760Y-102076934D01*
X115701316Y-102192157D01*
X115701315Y-102192159D01*
X115554659Y-102338815D01*
X115554657Y-102338816D01*
X115439434Y-102511260D01*
X115439430Y-102511269D01*
X115360062Y-102702877D01*
X115319600Y-102906298D01*
X114489542Y-102906298D01*
X117113475Y-100282365D01*
X117168873Y-100254139D01*
X117184610Y-100252900D01*
X118854210Y-100252900D01*
X118854214Y-100252899D01*
X118948555Y-100237957D01*
X119062271Y-100180016D01*
X119152516Y-100089771D01*
X119210457Y-99976055D01*
X119225400Y-99881708D01*
X119225400Y-98518292D01*
X119221368Y-98492837D01*
X119215667Y-98456838D01*
X119225393Y-98395429D01*
X119269356Y-98351465D01*
X119315028Y-98340500D01*
X129806500Y-98340500D01*
X129865631Y-98359713D01*
X129902176Y-98410013D01*
X129907100Y-98441100D01*
X129907100Y-100755055D01*
X129915971Y-100799657D01*
X129915973Y-100799661D01*
X129949764Y-100850232D01*
X129949765Y-100850233D01*
X129949766Y-100850234D01*
X130000342Y-100884028D01*
X130044943Y-100892900D01*
X130556500Y-100892899D01*
X130615631Y-100912112D01*
X130652176Y-100962412D01*
X130657100Y-100993499D01*
X130657100Y-102322891D01*
X130637887Y-102382022D01*
X130627635Y-102394026D01*
X130547500Y-102474161D01*
X130547500Y-102587489D01*
X130528287Y-102646620D01*
X130518035Y-102658624D01*
X129284857Y-103891801D01*
X129213410Y-103998730D01*
X129213406Y-103998740D01*
X129164191Y-104117554D01*
X129145038Y-104213845D01*
X129139100Y-104243695D01*
X129139100Y-110586305D01*
X129164191Y-110712444D01*
X129213408Y-110831264D01*
X129223024Y-110845655D01*
X129284858Y-110938197D01*
X129284860Y-110938199D01*
X129375801Y-111029140D01*
X129482736Y-111100592D01*
X129601556Y-111149809D01*
X129727695Y-111174900D01*
X129727696Y-111174900D01*
X134946304Y-111174900D01*
X134946305Y-111174900D01*
X135072444Y-111149809D01*
X135114091Y-111132557D01*
X135152589Y-111124900D01*
X160822304Y-111124900D01*
X160822305Y-111124900D01*
X160948444Y-111099809D01*
X161067264Y-111050592D01*
X161099368Y-111029141D01*
X161174200Y-110979141D01*
X163280975Y-108872363D01*
X163336373Y-108844138D01*
X163352110Y-108842899D01*
X163955056Y-108842899D01*
X163999658Y-108834028D01*
X164050234Y-108800234D01*
X164084028Y-108749658D01*
X164092900Y-108705057D01*
X164092899Y-107374944D01*
X164084028Y-107330342D01*
X164084026Y-107330338D01*
X164050235Y-107279767D01*
X164050233Y-107279765D01*
X163999657Y-107245971D01*
X163963928Y-107238864D01*
X163955057Y-107237100D01*
X163955056Y-107237100D01*
X162424944Y-107237100D01*
X162380342Y-107245971D01*
X162380338Y-107245973D01*
X162329767Y-107279764D01*
X162329765Y-107279766D01*
X162295971Y-107330342D01*
X162287100Y-107374943D01*
X162287100Y-107977889D01*
X162267887Y-108037020D01*
X162257635Y-108049024D01*
X160517024Y-109789635D01*
X160461626Y-109817861D01*
X160445889Y-109819100D01*
X134867695Y-109819100D01*
X134836586Y-109825287D01*
X134741563Y-109844189D01*
X134741554Y-109844191D01*
X134699909Y-109861442D01*
X134661411Y-109869100D01*
X130545500Y-109869100D01*
X130486369Y-109849887D01*
X130449824Y-109799587D01*
X130444900Y-109768500D01*
X130444900Y-108326108D01*
X130464113Y-108266977D01*
X130514413Y-108230432D01*
X130576587Y-108230432D01*
X130616632Y-108254971D01*
X130994162Y-108632500D01*
X131625839Y-108632500D01*
X132072500Y-108185838D01*
X132072500Y-108072510D01*
X132091713Y-108013379D01*
X132101965Y-108001375D01*
X132312605Y-107790736D01*
X132688575Y-107414765D01*
X132743973Y-107386539D01*
X132759710Y-107385300D01*
X133495489Y-107385300D01*
X133554620Y-107404513D01*
X133566624Y-107414765D01*
X134165239Y-108013379D01*
X134759000Y-108607140D01*
X134865936Y-108678592D01*
X134984756Y-108727809D01*
X135110895Y-108752900D01*
X156715243Y-108752900D01*
X156774374Y-108772113D01*
X156798508Y-108802727D01*
X156800466Y-108801419D01*
X156839764Y-108860232D01*
X156839765Y-108860233D01*
X156839766Y-108860234D01*
X156890342Y-108894028D01*
X156934943Y-108902900D01*
X158465056Y-108902899D01*
X158509658Y-108894028D01*
X158560234Y-108860234D01*
X158594028Y-108809658D01*
X158602900Y-108765057D01*
X158602899Y-107434944D01*
X158594028Y-107390342D01*
X158594026Y-107390338D01*
X158560235Y-107339767D01*
X158560233Y-107339765D01*
X158509657Y-107305971D01*
X158473928Y-107298864D01*
X158465057Y-107297100D01*
X158465056Y-107297100D01*
X156934944Y-107297100D01*
X156890342Y-107305971D01*
X156890338Y-107305973D01*
X156839767Y-107339764D01*
X156839765Y-107339766D01*
X156800468Y-107398580D01*
X156797996Y-107396928D01*
X156767810Y-107432274D01*
X156715244Y-107447100D01*
X135487310Y-107447100D01*
X135428179Y-107427887D01*
X135416175Y-107417635D01*
X134223798Y-106225257D01*
X134116869Y-106153810D01*
X134116859Y-106153806D01*
X133998045Y-106104591D01*
X133934974Y-106092045D01*
X133871905Y-106079500D01*
X133871904Y-106079500D01*
X133865900Y-106079500D01*
X133806769Y-106060287D01*
X133770224Y-106009987D01*
X133765300Y-105978900D01*
X133765300Y-104611800D01*
X145866041Y-104611800D01*
X147986666Y-104611800D01*
X147977482Y-104627708D01*
X147940000Y-104767591D01*
X147940000Y-104912409D01*
X147977482Y-105052292D01*
X147986666Y-105068200D01*
X145866041Y-105068200D01*
X145887332Y-105202637D01*
X145887333Y-105202640D01*
X145962656Y-105434458D01*
X145962657Y-105434460D01*
X146073315Y-105651640D01*
X146073318Y-105651644D01*
X146216592Y-105848843D01*
X146388956Y-106021207D01*
X146586155Y-106164481D01*
X146586159Y-106164484D01*
X146803339Y-106275142D01*
X146803341Y-106275143D01*
X147035159Y-106350466D01*
X147035175Y-106350470D01*
X147275916Y-106388599D01*
X147275921Y-106388600D01*
X148261800Y-106388600D01*
X148261800Y-105343333D01*
X148277708Y-105352518D01*
X148417591Y-105390000D01*
X148562409Y-105390000D01*
X148702292Y-105352518D01*
X148718200Y-105343333D01*
X148718200Y-106388600D01*
X149704079Y-106388600D01*
X149704083Y-106388599D01*
X149944824Y-106350470D01*
X149944840Y-106350466D01*
X150176658Y-106275143D01*
X150176660Y-106275142D01*
X150393840Y-106164484D01*
X150393844Y-106164481D01*
X150591043Y-106021207D01*
X150763407Y-105848843D01*
X150906681Y-105651644D01*
X150906684Y-105651640D01*
X150966144Y-105534943D01*
X156797100Y-105534943D01*
X156797100Y-106865055D01*
X156805971Y-106909657D01*
X156805973Y-106909661D01*
X156839764Y-106960232D01*
X156839765Y-106960233D01*
X156839766Y-106960234D01*
X156890342Y-106994028D01*
X156934943Y-107002900D01*
X158465056Y-107002899D01*
X158509658Y-106994028D01*
X158560234Y-106960234D01*
X158594028Y-106909658D01*
X158602900Y-106865057D01*
X158602899Y-105534944D01*
X158594028Y-105490342D01*
X158594026Y-105490339D01*
X158594026Y-105490338D01*
X158583739Y-105474943D01*
X162287100Y-105474943D01*
X162287100Y-106805055D01*
X162295971Y-106849657D01*
X162295973Y-106849661D01*
X162329764Y-106900232D01*
X162329765Y-106900233D01*
X162329766Y-106900234D01*
X162380342Y-106934028D01*
X162424943Y-106942900D01*
X163955056Y-106942899D01*
X163999658Y-106934028D01*
X164050234Y-106900234D01*
X164084028Y-106849658D01*
X164092900Y-106805057D01*
X164092899Y-105474944D01*
X164084028Y-105430342D01*
X164084026Y-105430338D01*
X164050235Y-105379767D01*
X164050233Y-105379765D01*
X163999657Y-105345971D01*
X163963928Y-105338864D01*
X163955057Y-105337100D01*
X163955056Y-105337100D01*
X163943500Y-105337100D01*
X163884369Y-105317887D01*
X163847824Y-105267587D01*
X163842900Y-105236500D01*
X163842900Y-104213845D01*
X163862113Y-104154714D01*
X163912413Y-104118169D01*
X163923876Y-104115178D01*
X163923989Y-104115155D01*
X163929658Y-104114028D01*
X163980234Y-104080234D01*
X164014028Y-104029658D01*
X164022900Y-103985057D01*
X164022899Y-103489943D01*
X166902100Y-103489943D01*
X166902100Y-105220055D01*
X166910971Y-105264657D01*
X166910973Y-105264661D01*
X166944764Y-105315232D01*
X166944766Y-105315234D01*
X166995342Y-105349028D01*
X167039943Y-105357900D01*
X168508575Y-105357899D01*
X168567706Y-105377112D01*
X168579710Y-105387364D01*
X169745599Y-106553253D01*
X169745601Y-106553257D01*
X169816743Y-106624399D01*
X169869357Y-106646192D01*
X169909695Y-106662901D01*
X170022014Y-106662901D01*
X170022022Y-106662900D01*
X171009693Y-106662900D01*
X171009695Y-106662901D01*
X171110305Y-106662901D01*
X171150387Y-106646298D01*
X177774600Y-106646298D01*
X177774600Y-106853702D01*
X177776859Y-106865057D01*
X177815062Y-107057122D01*
X177894430Y-107248730D01*
X177894434Y-107248739D01*
X178009657Y-107421183D01*
X178156316Y-107567842D01*
X178328760Y-107683065D01*
X178328761Y-107683065D01*
X178328765Y-107683068D01*
X178468689Y-107741027D01*
X178520377Y-107762437D01*
X178520378Y-107762437D01*
X178520380Y-107762438D01*
X178723798Y-107802900D01*
X178723799Y-107802900D01*
X180731201Y-107802900D01*
X180731202Y-107802900D01*
X180934620Y-107762438D01*
X181126235Y-107683068D01*
X181298685Y-107567841D01*
X181445341Y-107421185D01*
X181560568Y-107248735D01*
X181639938Y-107057120D01*
X181680400Y-106853702D01*
X181680400Y-106646298D01*
X181639938Y-106442880D01*
X181560568Y-106251265D01*
X181543191Y-106225259D01*
X181445342Y-106078816D01*
X181298683Y-105932157D01*
X181126239Y-105816934D01*
X181126230Y-105816930D01*
X180934622Y-105737562D01*
X180799008Y-105710587D01*
X180731202Y-105697100D01*
X178723798Y-105697100D01*
X178672943Y-105707215D01*
X178520377Y-105737562D01*
X178328769Y-105816930D01*
X178328760Y-105816934D01*
X178156316Y-105932157D01*
X178156315Y-105932159D01*
X178009659Y-106078815D01*
X178009657Y-106078816D01*
X177894434Y-106251260D01*
X177894430Y-106251269D01*
X177815062Y-106442877D01*
X177778956Y-106624398D01*
X177774600Y-106646298D01*
X171150387Y-106646298D01*
X171150643Y-106646192D01*
X171203257Y-106624399D01*
X171274399Y-106553257D01*
X171274400Y-106553253D01*
X172175289Y-105652364D01*
X172230687Y-105624138D01*
X172246424Y-105622899D01*
X173415056Y-105622899D01*
X173459658Y-105614028D01*
X173510234Y-105580234D01*
X173544028Y-105529658D01*
X173552900Y-105485057D01*
X173552899Y-103954944D01*
X173552899Y-103954943D01*
X173847100Y-103954943D01*
X173847100Y-105485055D01*
X173855971Y-105529657D01*
X173855973Y-105529661D01*
X173889764Y-105580232D01*
X173889765Y-105580233D01*
X173889766Y-105580234D01*
X173940342Y-105614028D01*
X173984943Y-105622900D01*
X175315056Y-105622899D01*
X175359658Y-105614028D01*
X175410234Y-105580234D01*
X175444028Y-105529658D01*
X175452900Y-105485057D01*
X175452900Y-105073500D01*
X175472113Y-105014369D01*
X175522413Y-104977824D01*
X175553500Y-104972900D01*
X177457193Y-104972900D01*
X177457195Y-104972901D01*
X177557805Y-104972901D01*
X177596306Y-104956952D01*
X177650757Y-104934399D01*
X177721899Y-104863257D01*
X177721899Y-104863255D01*
X177731563Y-104853592D01*
X177731569Y-104853584D01*
X178576057Y-104009095D01*
X178631453Y-103980871D01*
X178666813Y-103981564D01*
X178723798Y-103992900D01*
X178723800Y-103992900D01*
X180731201Y-103992900D01*
X180731202Y-103992900D01*
X180934620Y-103952438D01*
X181126235Y-103873068D01*
X181298685Y-103757841D01*
X181445341Y-103611185D01*
X181560568Y-103438735D01*
X181639938Y-103247120D01*
X181680400Y-103043702D01*
X181680400Y-102836298D01*
X181639938Y-102632880D01*
X181560568Y-102441265D01*
X181520983Y-102382022D01*
X181445342Y-102268816D01*
X181298683Y-102122157D01*
X181126239Y-102006934D01*
X181126230Y-102006930D01*
X180934622Y-101927562D01*
X180799008Y-101900587D01*
X180731202Y-101887100D01*
X178723798Y-101887100D01*
X178672943Y-101897215D01*
X178520377Y-101927562D01*
X178328769Y-102006930D01*
X178328760Y-102006934D01*
X178156316Y-102122157D01*
X178156315Y-102122159D01*
X178009659Y-102268815D01*
X178009657Y-102268816D01*
X177894434Y-102441260D01*
X177894430Y-102441269D01*
X177815062Y-102632877D01*
X177799654Y-102710342D01*
X177774600Y-102836298D01*
X177774600Y-103043702D01*
X177778427Y-103062940D01*
X177815062Y-103247122D01*
X177894430Y-103438730D01*
X177894434Y-103438739D01*
X178009657Y-103611183D01*
X178063024Y-103664550D01*
X178091250Y-103719948D01*
X178081524Y-103781356D01*
X178063024Y-103806820D01*
X177432211Y-104437635D01*
X177376813Y-104465861D01*
X177361076Y-104467100D01*
X175553499Y-104467100D01*
X175494368Y-104447887D01*
X175457823Y-104397587D01*
X175452899Y-104366500D01*
X175452899Y-103954944D01*
X175444028Y-103910342D01*
X175444026Y-103910338D01*
X175410235Y-103859767D01*
X175410233Y-103859765D01*
X175359657Y-103825971D01*
X175323928Y-103818864D01*
X175315057Y-103817100D01*
X175315056Y-103817100D01*
X173984944Y-103817100D01*
X173940342Y-103825971D01*
X173940338Y-103825973D01*
X173889767Y-103859764D01*
X173889765Y-103859766D01*
X173855971Y-103910342D01*
X173847100Y-103954943D01*
X173552899Y-103954943D01*
X173544028Y-103910342D01*
X173544026Y-103910338D01*
X173510235Y-103859767D01*
X173510233Y-103859765D01*
X173459657Y-103825971D01*
X173423928Y-103818864D01*
X173415057Y-103817100D01*
X173415056Y-103817100D01*
X172084944Y-103817100D01*
X172040342Y-103825971D01*
X172040338Y-103825973D01*
X171989767Y-103859764D01*
X171989765Y-103859766D01*
X171955971Y-103910342D01*
X171947100Y-103954943D01*
X171947100Y-105123575D01*
X171927887Y-105182706D01*
X171917635Y-105194710D01*
X170984711Y-106127635D01*
X170929313Y-106155861D01*
X170913576Y-106157100D01*
X170106424Y-106157100D01*
X170047293Y-106137887D01*
X170035289Y-106127635D01*
X168937364Y-105029710D01*
X168909138Y-104974312D01*
X168907899Y-104958575D01*
X168907899Y-104256223D01*
X169442100Y-104256223D01*
X169442100Y-104453776D01*
X169480641Y-104647537D01*
X169556239Y-104830047D01*
X169556243Y-104830055D01*
X169578428Y-104863257D01*
X169665996Y-104994312D01*
X169805688Y-105134004D01*
X169852444Y-105165245D01*
X169969944Y-105243756D01*
X169969946Y-105243757D01*
X169969949Y-105243759D01*
X170057709Y-105280110D01*
X170152462Y-105319358D01*
X170152463Y-105319358D01*
X170152465Y-105319359D01*
X170346223Y-105357900D01*
X170346224Y-105357900D01*
X170543776Y-105357900D01*
X170543777Y-105357900D01*
X170737535Y-105319359D01*
X170920051Y-105243759D01*
X171084312Y-105134004D01*
X171224004Y-104994312D01*
X171333759Y-104830051D01*
X171409359Y-104647535D01*
X171447900Y-104453777D01*
X171447900Y-104256223D01*
X171409359Y-104062465D01*
X171401646Y-104043845D01*
X171359904Y-103943069D01*
X171333759Y-103879949D01*
X171329161Y-103873068D01*
X171298942Y-103827841D01*
X171224004Y-103715688D01*
X171084312Y-103575996D01*
X170993800Y-103515518D01*
X170920055Y-103466243D01*
X170920047Y-103466239D01*
X170737537Y-103390641D01*
X170588374Y-103360971D01*
X170543777Y-103352100D01*
X170346223Y-103352100D01*
X170301626Y-103360971D01*
X170152462Y-103390641D01*
X169969952Y-103466239D01*
X169969944Y-103466243D01*
X169840852Y-103552500D01*
X169805688Y-103575996D01*
X169805687Y-103575997D01*
X169805686Y-103575997D01*
X169665997Y-103715686D01*
X169665997Y-103715687D01*
X169556243Y-103879944D01*
X169556239Y-103879952D01*
X169480641Y-104062462D01*
X169442100Y-104256223D01*
X168907899Y-104256223D01*
X168907899Y-103489944D01*
X168899028Y-103445342D01*
X168899026Y-103445338D01*
X168865235Y-103394767D01*
X168865233Y-103394765D01*
X168814657Y-103360971D01*
X168778928Y-103353864D01*
X168770057Y-103352100D01*
X168770056Y-103352100D01*
X167039944Y-103352100D01*
X166995342Y-103360971D01*
X166995338Y-103360973D01*
X166944767Y-103394764D01*
X166944765Y-103394766D01*
X166910971Y-103445342D01*
X166902100Y-103489943D01*
X164022899Y-103489943D01*
X164022899Y-103360973D01*
X164022899Y-102754944D01*
X164014028Y-102710342D01*
X164014026Y-102710338D01*
X163980235Y-102659767D01*
X163980233Y-102659765D01*
X163929657Y-102625971D01*
X163893928Y-102618864D01*
X163885057Y-102617100D01*
X163885056Y-102617100D01*
X162654944Y-102617100D01*
X162610342Y-102625971D01*
X162610338Y-102625973D01*
X162559767Y-102659764D01*
X162559765Y-102659766D01*
X162525971Y-102710342D01*
X162517100Y-102754943D01*
X162517100Y-103985055D01*
X162525971Y-104029657D01*
X162529443Y-104038038D01*
X162537100Y-104076534D01*
X162537100Y-105236500D01*
X162517887Y-105295631D01*
X162467587Y-105332176D01*
X162436506Y-105337100D01*
X162424944Y-105337100D01*
X162380342Y-105345971D01*
X162380338Y-105345973D01*
X162329767Y-105379764D01*
X162329765Y-105379766D01*
X162295971Y-105430342D01*
X162287100Y-105474943D01*
X158583739Y-105474943D01*
X158560235Y-105439767D01*
X158560233Y-105439765D01*
X158509657Y-105405971D01*
X158473928Y-105398864D01*
X158465057Y-105397100D01*
X158465056Y-105397100D01*
X158453500Y-105397100D01*
X158394369Y-105377887D01*
X158357824Y-105327587D01*
X158352900Y-105296500D01*
X158352900Y-103906533D01*
X158360559Y-103868031D01*
X158364026Y-103859661D01*
X158364028Y-103859658D01*
X158372900Y-103815057D01*
X158372899Y-102584944D01*
X158364028Y-102540342D01*
X158364026Y-102540338D01*
X158330235Y-102489767D01*
X158330233Y-102489765D01*
X158279657Y-102455971D01*
X158243928Y-102448864D01*
X158235057Y-102447100D01*
X158235056Y-102447100D01*
X157004944Y-102447100D01*
X156960342Y-102455971D01*
X156960338Y-102455973D01*
X156909767Y-102489764D01*
X156909765Y-102489766D01*
X156875971Y-102540342D01*
X156867100Y-102584943D01*
X156867100Y-103815055D01*
X156875971Y-103859657D01*
X156875973Y-103859661D01*
X156909764Y-103910232D01*
X156909766Y-103910234D01*
X156960342Y-103944028D01*
X156966125Y-103945178D01*
X157020371Y-103975555D01*
X157046402Y-104032017D01*
X157047100Y-104043845D01*
X157047100Y-105296500D01*
X157027887Y-105355631D01*
X156977587Y-105392176D01*
X156946506Y-105397100D01*
X156934944Y-105397100D01*
X156890342Y-105405971D01*
X156890338Y-105405973D01*
X156839767Y-105439764D01*
X156839765Y-105439766D01*
X156805971Y-105490342D01*
X156797100Y-105534943D01*
X150966144Y-105534943D01*
X150991933Y-105484330D01*
X151017342Y-105434460D01*
X151017343Y-105434458D01*
X151092666Y-105202640D01*
X151092667Y-105202637D01*
X151113959Y-105068200D01*
X148993334Y-105068200D01*
X149002518Y-105052292D01*
X149040000Y-104912409D01*
X149040000Y-104767591D01*
X149002518Y-104627708D01*
X148993334Y-104611800D01*
X151113959Y-104611800D01*
X151092667Y-104477362D01*
X151092666Y-104477359D01*
X151017343Y-104245541D01*
X151017342Y-104245539D01*
X150906684Y-104028359D01*
X150906681Y-104028355D01*
X150763407Y-103831156D01*
X150591043Y-103658792D01*
X150393844Y-103515518D01*
X150393840Y-103515515D01*
X150176660Y-103404857D01*
X150176658Y-103404856D01*
X149944840Y-103329533D01*
X149944824Y-103329529D01*
X149704083Y-103291400D01*
X148718200Y-103291400D01*
X148718200Y-104336666D01*
X148702292Y-104327482D01*
X148562409Y-104290000D01*
X148417591Y-104290000D01*
X148277708Y-104327482D01*
X148261800Y-104336666D01*
X148261800Y-103291400D01*
X147275916Y-103291400D01*
X147035175Y-103329529D01*
X147035159Y-103329533D01*
X146803341Y-103404856D01*
X146803339Y-103404857D01*
X146586159Y-103515515D01*
X146586155Y-103515518D01*
X146388956Y-103658792D01*
X146216592Y-103831156D01*
X146073318Y-104028355D01*
X146073315Y-104028359D01*
X145962657Y-104245539D01*
X145962656Y-104245541D01*
X145887333Y-104477359D01*
X145887332Y-104477362D01*
X145866041Y-104611800D01*
X133765300Y-104611800D01*
X133765300Y-98324943D01*
X134307100Y-98324943D01*
X134307100Y-100755055D01*
X134315971Y-100799657D01*
X134315973Y-100799661D01*
X134349764Y-100850232D01*
X134349765Y-100850233D01*
X134349766Y-100850234D01*
X134400342Y-100884028D01*
X134444943Y-100892900D01*
X136875056Y-100892899D01*
X136919658Y-100884028D01*
X136970234Y-100850234D01*
X137004028Y-100799658D01*
X137012900Y-100755057D01*
X137012899Y-99881714D01*
X137012899Y-99152110D01*
X137015407Y-99144389D01*
X137014138Y-99136372D01*
X137024832Y-99115383D01*
X137032112Y-99092979D01*
X137042365Y-99080974D01*
X137094876Y-99028464D01*
X137150274Y-99000238D01*
X137166010Y-98999000D01*
X142443204Y-98999000D01*
X142443205Y-98999000D01*
X142569344Y-98973909D01*
X142688164Y-98924692D01*
X142706873Y-98912191D01*
X142795100Y-98853241D01*
X144405975Y-97242364D01*
X144461373Y-97214139D01*
X144477110Y-97212900D01*
X145266129Y-97212900D01*
X145325260Y-97232113D01*
X145361805Y-97282413D01*
X145361805Y-97344587D01*
X145325260Y-97394887D01*
X145281866Y-97412861D01*
X145127375Y-97437329D01*
X145127359Y-97437333D01*
X144895541Y-97512656D01*
X144895539Y-97512657D01*
X144678359Y-97623315D01*
X144678355Y-97623318D01*
X144481156Y-97766592D01*
X144308792Y-97938956D01*
X144165518Y-98136155D01*
X144165515Y-98136159D01*
X144054857Y-98353339D01*
X144054856Y-98353341D01*
X143979533Y-98585159D01*
X143979529Y-98585175D01*
X143941400Y-98825916D01*
X143941400Y-99811800D01*
X144986666Y-99811800D01*
X144977482Y-99827708D01*
X144940000Y-99967591D01*
X144940000Y-100112409D01*
X144977482Y-100252292D01*
X144986666Y-100268200D01*
X143941400Y-100268200D01*
X143941400Y-101254083D01*
X143979529Y-101494824D01*
X143979533Y-101494840D01*
X144054856Y-101726658D01*
X144054857Y-101726660D01*
X144165515Y-101943840D01*
X144165518Y-101943844D01*
X144308792Y-102141043D01*
X144481156Y-102313407D01*
X144678355Y-102456681D01*
X144678359Y-102456684D01*
X144895539Y-102567342D01*
X144895541Y-102567343D01*
X145127359Y-102642666D01*
X145127362Y-102642667D01*
X145261800Y-102663959D01*
X145261800Y-100543333D01*
X145277708Y-100552518D01*
X145417591Y-100590000D01*
X145562409Y-100590000D01*
X145702292Y-100552518D01*
X145718200Y-100543333D01*
X145718200Y-102663958D01*
X145852637Y-102642667D01*
X145852640Y-102642666D01*
X146084458Y-102567343D01*
X146084460Y-102567342D01*
X146301640Y-102456684D01*
X146301644Y-102456681D01*
X146498843Y-102313407D01*
X146671207Y-102141043D01*
X146814481Y-101943844D01*
X146814484Y-101943840D01*
X146925142Y-101726660D01*
X146925143Y-101726658D01*
X147000466Y-101494840D01*
X147000470Y-101494824D01*
X147038599Y-101254083D01*
X147038600Y-101254079D01*
X147038600Y-100268200D01*
X145993334Y-100268200D01*
X146002518Y-100252292D01*
X146040000Y-100112409D01*
X146040000Y-99967591D01*
X146002518Y-99827708D01*
X145993334Y-99811800D01*
X147038600Y-99811800D01*
X147038600Y-98825921D01*
X147038599Y-98825916D01*
X147000470Y-98585175D01*
X147000466Y-98585159D01*
X146925143Y-98353341D01*
X146925142Y-98353339D01*
X146814484Y-98136159D01*
X146814481Y-98136155D01*
X146671207Y-97938956D01*
X146498843Y-97766592D01*
X146301644Y-97623318D01*
X146301640Y-97623315D01*
X146084460Y-97512657D01*
X146084458Y-97512656D01*
X145852640Y-97437333D01*
X145852624Y-97437329D01*
X145698134Y-97412861D01*
X145642736Y-97384635D01*
X145614510Y-97329237D01*
X145624236Y-97267829D01*
X145668199Y-97223865D01*
X145713871Y-97212900D01*
X147697889Y-97212900D01*
X147757020Y-97232113D01*
X147769024Y-97242365D01*
X150215435Y-99688775D01*
X150243661Y-99744173D01*
X150244900Y-99759910D01*
X150244900Y-101230195D01*
X150275558Y-101423757D01*
X150275561Y-101423771D01*
X150336120Y-101610150D01*
X150336121Y-101610153D01*
X150425092Y-101784771D01*
X150425095Y-101784775D01*
X150540289Y-101943326D01*
X150678873Y-102081910D01*
X150734268Y-102122157D01*
X150830617Y-102192159D01*
X150837424Y-102197104D01*
X150837428Y-102197107D01*
X150978165Y-102268815D01*
X151012048Y-102286079D01*
X151096155Y-102313407D01*
X151198428Y-102346638D01*
X151198430Y-102346638D01*
X151198438Y-102346641D01*
X151392004Y-102377299D01*
X151392006Y-102377300D01*
X151392009Y-102377300D01*
X151587994Y-102377300D01*
X151587994Y-102377299D01*
X151781562Y-102346641D01*
X151967952Y-102286079D01*
X152142575Y-102197105D01*
X152301128Y-102081909D01*
X152439709Y-101943328D01*
X152554905Y-101784775D01*
X152570095Y-101754963D01*
X156563600Y-101754963D01*
X156566492Y-101785808D01*
X156611931Y-101915669D01*
X156693631Y-102026368D01*
X156804330Y-102108068D01*
X156934192Y-102153507D01*
X156934191Y-102153507D01*
X156965037Y-102156400D01*
X157391800Y-102156400D01*
X157848200Y-102156400D01*
X158274963Y-102156400D01*
X158305808Y-102153507D01*
X158435669Y-102108068D01*
X158546368Y-102026368D01*
X158621209Y-101924963D01*
X162213600Y-101924963D01*
X162216492Y-101955808D01*
X162261931Y-102085669D01*
X162343631Y-102196368D01*
X162454330Y-102278068D01*
X162584192Y-102323507D01*
X162584191Y-102323507D01*
X162615037Y-102326400D01*
X163041800Y-102326400D01*
X163498200Y-102326400D01*
X163924963Y-102326400D01*
X163955808Y-102323507D01*
X164085669Y-102278068D01*
X164196368Y-102196368D01*
X164278068Y-102085669D01*
X164323507Y-101955808D01*
X164326400Y-101924963D01*
X164326400Y-101498200D01*
X163498200Y-101498200D01*
X163498200Y-102326400D01*
X163041800Y-102326400D01*
X163041800Y-101498200D01*
X162213600Y-101498200D01*
X162213600Y-101924963D01*
X158621209Y-101924963D01*
X158628068Y-101915669D01*
X158673507Y-101785808D01*
X158676400Y-101754963D01*
X158676400Y-101328200D01*
X157848200Y-101328200D01*
X157848200Y-102156400D01*
X157391800Y-102156400D01*
X157391800Y-101328200D01*
X156563600Y-101328200D01*
X156563600Y-101754963D01*
X152570095Y-101754963D01*
X152643879Y-101610152D01*
X152704441Y-101423762D01*
X152719577Y-101328200D01*
X152728670Y-101270792D01*
X152735099Y-101230195D01*
X152735100Y-101230194D01*
X152735100Y-100445036D01*
X156563600Y-100445036D01*
X156563600Y-100871800D01*
X157391800Y-100871800D01*
X157848200Y-100871800D01*
X158676400Y-100871800D01*
X158676400Y-100615036D01*
X162213600Y-100615036D01*
X162213600Y-101041800D01*
X163041800Y-101041800D01*
X163498200Y-101041800D01*
X164326400Y-101041800D01*
X164326400Y-100615036D01*
X164323507Y-100584191D01*
X164278068Y-100454330D01*
X164196368Y-100343631D01*
X164085669Y-100261931D01*
X163955807Y-100216492D01*
X163955808Y-100216492D01*
X163924963Y-100213600D01*
X163498200Y-100213600D01*
X163498200Y-101041800D01*
X163041800Y-101041800D01*
X163041800Y-100213600D01*
X162615037Y-100213600D01*
X162584191Y-100216492D01*
X162454330Y-100261931D01*
X162343631Y-100343631D01*
X162261931Y-100454330D01*
X162216492Y-100584191D01*
X162213600Y-100615036D01*
X158676400Y-100615036D01*
X158676400Y-100445036D01*
X158673507Y-100414191D01*
X158628068Y-100284330D01*
X158546368Y-100173631D01*
X158435669Y-100091931D01*
X158305807Y-100046492D01*
X158305808Y-100046492D01*
X158274963Y-100043600D01*
X157848200Y-100043600D01*
X157848200Y-100871800D01*
X157391800Y-100871800D01*
X157391800Y-100043600D01*
X156965037Y-100043600D01*
X156934191Y-100046492D01*
X156804330Y-100091931D01*
X156693631Y-100173631D01*
X156611931Y-100284330D01*
X156566492Y-100414191D01*
X156563600Y-100445036D01*
X152735100Y-100445036D01*
X152735100Y-98901800D01*
X177490337Y-98901800D01*
X179167480Y-98901800D01*
X179127500Y-99051009D01*
X179127500Y-99208991D01*
X179167480Y-99358200D01*
X177490337Y-99358200D01*
X177504500Y-99447630D01*
X177504501Y-99447633D01*
X177570474Y-99650677D01*
X177667398Y-99840899D01*
X177667405Y-99840910D01*
X177792894Y-100013633D01*
X177943866Y-100164605D01*
X178116589Y-100290094D01*
X178116600Y-100290101D01*
X178306822Y-100387025D01*
X178509866Y-100452998D01*
X178509882Y-100453002D01*
X178720742Y-100486399D01*
X178720747Y-100486400D01*
X179499300Y-100486400D01*
X179499300Y-99690019D01*
X179648509Y-99730000D01*
X179806491Y-99730000D01*
X179955700Y-99690019D01*
X179955700Y-100486400D01*
X180734253Y-100486400D01*
X180734257Y-100486399D01*
X180945117Y-100453002D01*
X180945133Y-100452998D01*
X181148177Y-100387025D01*
X181338399Y-100290101D01*
X181338410Y-100290094D01*
X181511133Y-100164605D01*
X181662105Y-100013633D01*
X181787594Y-99840910D01*
X181787601Y-99840899D01*
X181884525Y-99650677D01*
X181950498Y-99447633D01*
X181950499Y-99447630D01*
X181964663Y-99358200D01*
X180287520Y-99358200D01*
X180327500Y-99208991D01*
X180327500Y-99051009D01*
X180287520Y-98901800D01*
X181964663Y-98901800D01*
X181950499Y-98812369D01*
X181950498Y-98812366D01*
X181884525Y-98609322D01*
X181787601Y-98419100D01*
X181787594Y-98419089D01*
X181662105Y-98246366D01*
X181511133Y-98095394D01*
X181338410Y-97969905D01*
X181338399Y-97969898D01*
X181148177Y-97872974D01*
X180945133Y-97807001D01*
X180945117Y-97806997D01*
X180734257Y-97773600D01*
X179955700Y-97773600D01*
X179955700Y-98569980D01*
X179806491Y-98530000D01*
X179648509Y-98530000D01*
X179499300Y-98569980D01*
X179499300Y-97773600D01*
X178720742Y-97773600D01*
X178509882Y-97806997D01*
X178509866Y-97807001D01*
X178306822Y-97872974D01*
X178116600Y-97969898D01*
X178116589Y-97969905D01*
X177943866Y-98095394D01*
X177792894Y-98246366D01*
X177667405Y-98419089D01*
X177667398Y-98419100D01*
X177570474Y-98609322D01*
X177504501Y-98812366D01*
X177504500Y-98812369D01*
X177490337Y-98901800D01*
X152735100Y-98901800D01*
X152735100Y-98849805D01*
X152735099Y-98849804D01*
X152731316Y-98825921D01*
X152704441Y-98656238D01*
X152702375Y-98649881D01*
X152643879Y-98469849D01*
X152643878Y-98469846D01*
X152554907Y-98295228D01*
X152554904Y-98295224D01*
X152439710Y-98136673D01*
X152301126Y-97998089D01*
X152142575Y-97882895D01*
X152142571Y-97882892D01*
X151967953Y-97793921D01*
X151967950Y-97793920D01*
X151781571Y-97733361D01*
X151781557Y-97733358D01*
X151587995Y-97702700D01*
X151587991Y-97702700D01*
X151392009Y-97702700D01*
X151392005Y-97702700D01*
X151198442Y-97733358D01*
X151198428Y-97733361D01*
X151012049Y-97793920D01*
X151012046Y-97793921D01*
X150837428Y-97882892D01*
X150837424Y-97882895D01*
X150678873Y-97998089D01*
X150596286Y-98080676D01*
X150540888Y-98108903D01*
X150479479Y-98099176D01*
X150454016Y-98080676D01*
X149453516Y-97080176D01*
X148426200Y-96052859D01*
X148426199Y-96052858D01*
X148426198Y-96052857D01*
X148319269Y-95981410D01*
X148319259Y-95981406D01*
X148200445Y-95932191D01*
X148137374Y-95919645D01*
X148074305Y-95907100D01*
X144100695Y-95907100D01*
X144058648Y-95915463D01*
X143974554Y-95932191D01*
X143855740Y-95981406D01*
X143855731Y-95981410D01*
X143770012Y-96038685D01*
X143748801Y-96052859D01*
X143748800Y-96052860D01*
X143748799Y-96052860D01*
X142137924Y-97663735D01*
X142082526Y-97691961D01*
X142066789Y-97693200D01*
X136789595Y-97693200D01*
X136758486Y-97699387D01*
X136663463Y-97718289D01*
X136663459Y-97718290D01*
X136663457Y-97718290D01*
X136663456Y-97718291D01*
X136627079Y-97733359D01*
X136627078Y-97733358D01*
X136544638Y-97767506D01*
X136544636Y-97767507D01*
X136437697Y-97838962D01*
X136119024Y-98157635D01*
X136063626Y-98185861D01*
X136047889Y-98187100D01*
X134444944Y-98187100D01*
X134400342Y-98195971D01*
X134400338Y-98195973D01*
X134349767Y-98229764D01*
X134349765Y-98229766D01*
X134315971Y-98280342D01*
X134307100Y-98324943D01*
X133765300Y-98324943D01*
X133765300Y-97623295D01*
X133743292Y-97512656D01*
X133740209Y-97497156D01*
X133690992Y-97378336D01*
X133619540Y-97271401D01*
X133528599Y-97180460D01*
X133528598Y-97180459D01*
X133528597Y-97180458D01*
X133475492Y-97144975D01*
X133421664Y-97109008D01*
X133421661Y-97109006D01*
X133421660Y-97109006D01*
X133302845Y-97059791D01*
X133239774Y-97047245D01*
X133176705Y-97034700D01*
X118720595Y-97034700D01*
X118657525Y-97047245D01*
X118594455Y-97059791D01*
X118569848Y-97069983D01*
X118545240Y-97080176D01*
X118520632Y-97090368D01*
X118475640Y-97109005D01*
X118475637Y-97109006D01*
X118395067Y-97162841D01*
X118368703Y-97180458D01*
X118368697Y-97180462D01*
X117431524Y-98117635D01*
X117376126Y-98145861D01*
X117360389Y-98147100D01*
X115690785Y-98147100D01*
X115596447Y-98162042D01*
X115596441Y-98162044D01*
X115482732Y-98219981D01*
X115392481Y-98310232D01*
X115334544Y-98423941D01*
X115334542Y-98423947D01*
X115319600Y-98518285D01*
X115319600Y-99881714D01*
X115334542Y-99976052D01*
X115334543Y-99976055D01*
X115381884Y-100068967D01*
X115391610Y-100130376D01*
X115363384Y-100185774D01*
X113172858Y-102376300D01*
X113119151Y-102456681D01*
X113107472Y-102474161D01*
X113107472Y-102474162D01*
X113107471Y-102474163D01*
X113101406Y-102483237D01*
X113052191Y-102602054D01*
X113030652Y-102710338D01*
X113027100Y-102728195D01*
X112697900Y-102728195D01*
X112697900Y-95129700D01*
X112717113Y-95070569D01*
X112767413Y-95034024D01*
X112798500Y-95029100D01*
X183972298Y-95029100D01*
X184031429Y-95048313D01*
G37*
%TD.AperFunction*%
%TD*%
M02*
