%TF.GenerationSoftware,KiCad,Pcbnew,10.0.1*%
%TF.CreationDate,2026-05-05T17:54:13+02:00*%
%TF.ProjectId,power_injector_rev_c,706f7765-725f-4696-9e6a-6563746f725f,rev?*%
%TF.SameCoordinates,Original*%
%TF.FileFunction,Copper,L2,Bot*%
%TF.FilePolarity,Positive*%
%FSLAX46Y46*%
G04 Gerber Fmt 4.6, Leading zero omitted, Abs format (unit mm)*
G04 Created by KiCad (PCBNEW 10.0.1) date 2026-05-05 17:54:13*
%MOMM*%
%LPD*%
G01*
G04 APERTURE LIST*
G04 Aperture macros list*
%AMRoundRect*
0 Rectangle with rounded corners*
0 $1 Rounding radius*
0 $2 $3 $4 $5 $6 $7 $8 $9 X,Y pos of 4 corners*
0 Add a 4 corners polygon primitive as box body*
4,1,4,$2,$3,$4,$5,$6,$7,$8,$9,$2,$3,0*
0 Add four circle primitives for the rounded corners*
1,1,$1+$1,$2,$3*
1,1,$1+$1,$4,$5*
1,1,$1+$1,$6,$7*
1,1,$1+$1,$8,$9*
0 Add four rect primitives between the rounded corners*
20,1,$1+$1,$2,$3,$4,$5,0*
20,1,$1+$1,$4,$5,$6,$7,0*
20,1,$1+$1,$6,$7,$8,$9,0*
20,1,$1+$1,$8,$9,$2,$3,0*%
%AMOutline5P*
0 Free polygon, 5 corners , with rotation*
0 The origin of the aperture is its center*
0 number of corners: always 5*
0 $1 to $10 corner X, Y*
0 $11 Rotation angle, in degrees counterclockwise*
0 create outline with 5 corners*
4,1,5,$1,$2,$3,$4,$5,$6,$7,$8,$9,$10,$1,$2,$11*%
%AMOutline6P*
0 Free polygon, 6 corners , with rotation*
0 The origin of the aperture is its center*
0 number of corners: always 6*
0 $1 to $12 corner X, Y*
0 $13 Rotation angle, in degrees counterclockwise*
0 create outline with 6 corners*
4,1,6,$1,$2,$3,$4,$5,$6,$7,$8,$9,$10,$11,$12,$1,$2,$13*%
%AMOutline7P*
0 Free polygon, 7 corners , with rotation*
0 The origin of the aperture is its center*
0 number of corners: always 7*
0 $1 to $14 corner X, Y*
0 $15 Rotation angle, in degrees counterclockwise*
0 create outline with 7 corners*
4,1,7,$1,$2,$3,$4,$5,$6,$7,$8,$9,$10,$11,$12,$13,$14,$1,$2,$15*%
%AMOutline8P*
0 Free polygon, 8 corners , with rotation*
0 The origin of the aperture is its center*
0 number of corners: always 8*
0 $1 to $16 corner X, Y*
0 $17 Rotation angle, in degrees counterclockwise*
0 create outline with 8 corners*
4,1,8,$1,$2,$3,$4,$5,$6,$7,$8,$9,$10,$11,$12,$13,$14,$15,$16,$1,$2,$17*%
G04 Aperture macros list end*
%TA.AperFunction,ComponentPad*%
%ADD10R,1.700000X1.700000*%
%TD*%
%TA.AperFunction,ComponentPad*%
%ADD11C,1.700000*%
%TD*%
%TA.AperFunction,ComponentPad*%
%ADD12O,3.600000X1.800000*%
%TD*%
%TA.AperFunction,ComponentPad*%
%ADD13RoundRect,0.250000X-1.550000X0.650000X-1.550000X-0.650000X1.550000X-0.650000X1.550000X0.650000X0*%
%TD*%
%TA.AperFunction,ComponentPad*%
%ADD14RoundRect,0.250000X1.550000X-0.650000X1.550000X0.650000X-1.550000X0.650000X-1.550000X-0.650000X0*%
%TD*%
%TA.AperFunction,ComponentPad*%
%ADD15O,2.184400X4.368800*%
%TD*%
%TA.AperFunction,ComponentPad*%
%ADD16O,4.368800X2.184400*%
%TD*%
%TA.AperFunction,ComponentPad*%
%ADD17Outline8P,-0.609600X0.252505X-0.252505X0.609600X0.252505X0.609600X0.609600X0.252505X0.609600X-0.252505X0.252505X-0.609600X-0.252505X-0.609600X-0.609600X-0.252505X270.000000*%
%TD*%
%TA.AperFunction,Conductor*%
%ADD18C,0.200000*%
%TD*%
G04 APERTURE END LIST*
D10*
%TO.P,J1,1,Pin_1_1*%
%TO.N,Net-(J1-Pin_1)*%
X167905000Y-104355000D03*
D11*
%TO.P,J1,2,Pin_2_2*%
%TO.N,Net-(J1-Pin_2)*%
X170445000Y-104355000D03*
%TD*%
D12*
%TO.P,J8,4,Pin_4_4*%
%TO.N,GND*%
X117272500Y-110630000D03*
%TO.P,J8,3,Pin_3_3*%
%TO.N,Net-(J1-Pin_2)*%
X117272500Y-106820000D03*
%TO.P,J8,2,Pin_2_2*%
%TO.N,Net-(J1-Pin_1)*%
X117272500Y-103010000D03*
D13*
%TO.P,J8,1,Pin_1_1*%
%TO.N,Net-(J8-Pin_1)*%
X117272500Y-99200000D03*
%TD*%
D14*
%TO.P,J9,1,Pin_1_1*%
%TO.N,Net-(J8-Pin_1)*%
X179727500Y-110560000D03*
D12*
%TO.P,J9,2,Pin_2_2*%
%TO.N,Net-(J1-Pin_1)*%
X179727500Y-106750000D03*
%TO.P,J9,3,Pin_3_3*%
%TO.N,Net-(J1-Pin_2)*%
X179727500Y-102940000D03*
%TO.P,J9,4,Pin_4_4*%
%TO.N,GND*%
X179727500Y-99130000D03*
%TD*%
D15*
%TO.P,J4,1,1_1*%
%TO.N,GND*%
X145490000Y-100040000D03*
D16*
%TO.P,J4,2,2_2*%
X148490000Y-104840000D03*
D15*
%TO.P,J4,3,3_3*%
%TO.N,Net-(D1-PadA)*%
X151490000Y-100040000D03*
%TD*%
D17*
%TO.P,F3,1,1_1*%
%TO.N,+24V*%
X131310000Y-102790000D03*
%TO.P,F3,2,2_2*%
%TO.N,Net-(J8-Pin_1)*%
X131310000Y-107870000D03*
%TD*%
%TO.N,Net-(J1-Pin_2)*%
D18*
X117272500Y-106820000D02*
X115220100Y-104767600D01*
X115220100Y-104767600D02*
X115220100Y-102262660D01*
X115220100Y-102262660D02*
X115905160Y-101577600D01*
X146087400Y-103252600D02*
X169342600Y-103252600D01*
X115905160Y-101577600D02*
X118659840Y-101577600D01*
X118659840Y-101577600D02*
X120734240Y-103652000D01*
X120734240Y-103652000D02*
X145688000Y-103652000D01*
X145688000Y-103652000D02*
X146087400Y-103252600D01*
X169342600Y-103252600D02*
X170445000Y-104355000D01*
%TO.N,Net-(J1-Pin_1)*%
X169740000Y-106340000D02*
X120602500Y-106340000D01*
X120602500Y-106340000D02*
X117272500Y-103010000D01*
X167905000Y-104355000D02*
X169740000Y-106190000D01*
X169740000Y-106190000D02*
X169740000Y-106340000D01*
%TO.N,Net-(J1-Pin_2)*%
X170445000Y-104355000D02*
X172270000Y-102530000D01*
X172270000Y-102530000D02*
X179697500Y-102530000D01*
%TO.N,Net-(J1-Pin_1)*%
X169740000Y-106340000D02*
X179697500Y-106340000D01*
%TD*%
%TA.AperFunction,Conductor*%
%TO.N,GND*%
G36*
X119235620Y-102511035D02*
G01*
X119971703Y-103247118D01*
X120516272Y-103791687D01*
X120516285Y-103791702D01*
X120555642Y-103831058D01*
X120590983Y-103866399D01*
X120590984Y-103866399D01*
X120590985Y-103866400D01*
X120607080Y-103873067D01*
X120607083Y-103873067D01*
X120607084Y-103873068D01*
X120683935Y-103904901D01*
X120791818Y-103904901D01*
X120791826Y-103904900D01*
X145630414Y-103904900D01*
X145630422Y-103904901D01*
X145637695Y-103904901D01*
X145738304Y-103904901D01*
X145738305Y-103904901D01*
X145776806Y-103888952D01*
X145831257Y-103866399D01*
X145902399Y-103795257D01*
X145902399Y-103795256D01*
X145908399Y-103789257D01*
X145908408Y-103789244D01*
X146173848Y-103523806D01*
X146218042Y-103505500D01*
X146681179Y-103505500D01*
X146725373Y-103523806D01*
X146743679Y-103568000D01*
X146725373Y-103612194D01*
X146709554Y-103623688D01*
X146666027Y-103645866D01*
X146488237Y-103775038D01*
X146488229Y-103775045D01*
X146332845Y-103930429D01*
X146332838Y-103930437D01*
X146203666Y-104108227D01*
X146103891Y-104304043D01*
X146103890Y-104304046D01*
X146035980Y-104513050D01*
X146008271Y-104688000D01*
X147961327Y-104688000D01*
X147940000Y-104767591D01*
X147940000Y-104912409D01*
X147961327Y-104992000D01*
X146008271Y-104992000D01*
X146035980Y-105166949D01*
X146103890Y-105375953D01*
X146103891Y-105375956D01*
X146203666Y-105571772D01*
X146332838Y-105749562D01*
X146332845Y-105749570D01*
X146488229Y-105904954D01*
X146488237Y-105904961D01*
X146583311Y-105974037D01*
X146608305Y-106014823D01*
X146597137Y-106061337D01*
X146556351Y-106086331D01*
X146546574Y-106087100D01*
X120733142Y-106087100D01*
X120688948Y-106068794D01*
X118660336Y-104040182D01*
X118642030Y-103995988D01*
X118660336Y-103951794D01*
X118669807Y-103944021D01*
X118671230Y-103943069D01*
X118671235Y-103943068D01*
X118843685Y-103827841D01*
X118990341Y-103681185D01*
X119105568Y-103508735D01*
X119184938Y-103317120D01*
X119225400Y-103113702D01*
X119225400Y-102906298D01*
X119184938Y-102702880D01*
X119133685Y-102579147D01*
X119133685Y-102531312D01*
X119167510Y-102497488D01*
X119215346Y-102497487D01*
X119235620Y-102511035D01*
G37*
%TD.AperFunction*%
%TA.AperFunction,Conductor*%
G36*
X166883794Y-103523806D02*
G01*
X166902100Y-103568000D01*
X166902100Y-105220054D01*
X166902101Y-105220058D01*
X166910971Y-105264656D01*
X166910972Y-105264658D01*
X166944766Y-105315234D01*
X166995342Y-105349028D01*
X167039943Y-105357900D01*
X168524357Y-105357899D01*
X168568551Y-105376205D01*
X169172752Y-105980406D01*
X169191058Y-106024600D01*
X169172752Y-106068794D01*
X169128558Y-106087100D01*
X150433426Y-106087100D01*
X150389232Y-106068794D01*
X150370926Y-106024600D01*
X150389232Y-105980406D01*
X150396689Y-105974037D01*
X150491762Y-105904961D01*
X150491770Y-105904954D01*
X150647154Y-105749570D01*
X150647161Y-105749562D01*
X150776333Y-105571772D01*
X150876108Y-105375956D01*
X150876109Y-105375953D01*
X150944019Y-105166949D01*
X150971729Y-104992000D01*
X149018673Y-104992000D01*
X149040000Y-104912409D01*
X149040000Y-104767591D01*
X149018673Y-104688000D01*
X150971728Y-104688000D01*
X150944019Y-104513050D01*
X150876109Y-104304046D01*
X150876108Y-104304043D01*
X150776333Y-104108227D01*
X150647161Y-103930437D01*
X150647154Y-103930429D01*
X150491770Y-103775045D01*
X150491762Y-103775038D01*
X150313972Y-103645866D01*
X150270446Y-103623688D01*
X150239380Y-103587313D01*
X150243133Y-103539625D01*
X150279508Y-103508559D01*
X150298821Y-103505500D01*
X166839600Y-103505500D01*
X166883794Y-103523806D01*
G37*
%TD.AperFunction*%
%TA.AperFunction,Conductor*%
G36*
X183809794Y-95194906D02*
G01*
X183828100Y-95239100D01*
X183828100Y-113976600D01*
X183876682Y-113976600D01*
X183887088Y-113980410D01*
X183897156Y-113989671D01*
X183909794Y-113994906D01*
X183914070Y-114005229D01*
X183922294Y-114012794D01*
X183922864Y-114026461D01*
X183928100Y-114039100D01*
X183928100Y-114468100D01*
X183909794Y-114512294D01*
X183865600Y-114530600D01*
X113236600Y-114530600D01*
X113192406Y-114512294D01*
X113174100Y-114468100D01*
X113174100Y-110477999D01*
X115177565Y-110477999D01*
X115177566Y-110478000D01*
X116692063Y-110478000D01*
X116672500Y-110551009D01*
X116672500Y-110708991D01*
X116692063Y-110782000D01*
X115177565Y-110782000D01*
X115198145Y-110911934D01*
X115198145Y-110911935D01*
X115256709Y-111092177D01*
X115256710Y-111092179D01*
X115342748Y-111261036D01*
X115454139Y-111414352D01*
X115454146Y-111414360D01*
X115588139Y-111548353D01*
X115588147Y-111548360D01*
X115741463Y-111659751D01*
X115910320Y-111745789D01*
X115910322Y-111745790D01*
X116090559Y-111804352D01*
X116090568Y-111804354D01*
X116277729Y-111833998D01*
X116277745Y-111834000D01*
X117120500Y-111834000D01*
X117120500Y-111210437D01*
X117193509Y-111230000D01*
X117351491Y-111230000D01*
X117424500Y-111210437D01*
X117424500Y-111834000D01*
X118267255Y-111834000D01*
X118267270Y-111833998D01*
X118454431Y-111804354D01*
X118454440Y-111804352D01*
X118634677Y-111745790D01*
X118634679Y-111745789D01*
X118803536Y-111659751D01*
X118956852Y-111548360D01*
X118956860Y-111548353D01*
X119090853Y-111414360D01*
X119090860Y-111414352D01*
X119202251Y-111261036D01*
X119288289Y-111092179D01*
X119288290Y-111092177D01*
X119346854Y-110911935D01*
X119346854Y-110911934D01*
X119367434Y-110782000D01*
X117852937Y-110782000D01*
X117872500Y-110708991D01*
X117872500Y-110551009D01*
X117852937Y-110478000D01*
X119367434Y-110478000D01*
X119367434Y-110477999D01*
X119346854Y-110348065D01*
X119346854Y-110348064D01*
X119288290Y-110167822D01*
X119288289Y-110167820D01*
X119202254Y-109998968D01*
X119139484Y-109912573D01*
X119139483Y-109912570D01*
X119114580Y-109878294D01*
X177774600Y-109878294D01*
X177774600Y-111241705D01*
X177774601Y-111241721D01*
X177789541Y-111336049D01*
X177789544Y-111336059D01*
X177847483Y-111449770D01*
X177937729Y-111540016D01*
X178051440Y-111597955D01*
X178051442Y-111597955D01*
X178051445Y-111597957D01*
X178051448Y-111597957D01*
X178051450Y-111597958D01*
X178145778Y-111612898D01*
X178145784Y-111612898D01*
X178145792Y-111612900D01*
X178145794Y-111612900D01*
X181309206Y-111612900D01*
X181309208Y-111612900D01*
X181403555Y-111597957D01*
X181517271Y-111540016D01*
X181607516Y-111449771D01*
X181665457Y-111336055D01*
X181680400Y-111241708D01*
X181680400Y-109878292D01*
X181675228Y-109845639D01*
X181665458Y-109783950D01*
X181665457Y-109783948D01*
X181665457Y-109783945D01*
X181665455Y-109783942D01*
X181665455Y-109783940D01*
X181607516Y-109670229D01*
X181517270Y-109579983D01*
X181403559Y-109522044D01*
X181403549Y-109522041D01*
X181309221Y-109507101D01*
X181309209Y-109507100D01*
X181309208Y-109507100D01*
X178145792Y-109507100D01*
X178145790Y-109507100D01*
X178145778Y-109507101D01*
X178051450Y-109522041D01*
X178051440Y-109522044D01*
X177937729Y-109579983D01*
X177847483Y-109670229D01*
X177789544Y-109783940D01*
X177789541Y-109783950D01*
X177774601Y-109878278D01*
X177774600Y-109878294D01*
X119114580Y-109878294D01*
X119090860Y-109845647D01*
X119090853Y-109845639D01*
X118956860Y-109711646D01*
X118956852Y-109711639D01*
X118803536Y-109600248D01*
X118634679Y-109514210D01*
X118634677Y-109514209D01*
X118454440Y-109455647D01*
X118454431Y-109455645D01*
X118267270Y-109426001D01*
X118267255Y-109426000D01*
X117424500Y-109426000D01*
X117424500Y-110049562D01*
X117351491Y-110030000D01*
X117193509Y-110030000D01*
X117120500Y-110049562D01*
X117120500Y-109426000D01*
X116277745Y-109426000D01*
X116277729Y-109426001D01*
X116090568Y-109455645D01*
X116090559Y-109455647D01*
X115910322Y-109514209D01*
X115910320Y-109514210D01*
X115741463Y-109600248D01*
X115588147Y-109711639D01*
X115588139Y-109711646D01*
X115454146Y-109845639D01*
X115454139Y-109845647D01*
X115342748Y-109998963D01*
X115256710Y-110167820D01*
X115256709Y-110167822D01*
X115198145Y-110348064D01*
X115198145Y-110348065D01*
X115177565Y-110477999D01*
X113174100Y-110477999D01*
X113174100Y-102212355D01*
X114967199Y-102212355D01*
X114967199Y-102217600D01*
X114967199Y-102320237D01*
X114967200Y-102320246D01*
X114967200Y-104712250D01*
X114967199Y-104712264D01*
X114967199Y-104817906D01*
X114983146Y-104856404D01*
X114983146Y-104856406D01*
X114983147Y-104856406D01*
X115005700Y-104910855D01*
X115005702Y-104910858D01*
X115081984Y-104987140D01*
X115081994Y-104987148D01*
X115884663Y-105789817D01*
X115902969Y-105834011D01*
X115884663Y-105878205D01*
X115875192Y-105885978D01*
X115701315Y-106002158D01*
X115554658Y-106148815D01*
X115439433Y-106321262D01*
X115439432Y-106321264D01*
X115360061Y-106512881D01*
X115319600Y-106716297D01*
X115319600Y-106923702D01*
X115360061Y-107127118D01*
X115439432Y-107318735D01*
X115439433Y-107318737D01*
X115554658Y-107491184D01*
X115554659Y-107491185D01*
X115701315Y-107637841D01*
X115873765Y-107753068D01*
X116065380Y-107832438D01*
X116268798Y-107872900D01*
X118276202Y-107872900D01*
X118479620Y-107832438D01*
X118671235Y-107753068D01*
X118843685Y-107637841D01*
X118927365Y-107554161D01*
X130547500Y-107554161D01*
X130547500Y-107554162D01*
X130547500Y-108185839D01*
X130994162Y-108632500D01*
X131625839Y-108632500D01*
X132072500Y-108185838D01*
X132072500Y-107554161D01*
X131625838Y-107107500D01*
X130994161Y-107107500D01*
X130547500Y-107554161D01*
X118927365Y-107554161D01*
X118990341Y-107491185D01*
X119105568Y-107318735D01*
X119184938Y-107127120D01*
X119225400Y-106923702D01*
X119225400Y-106716298D01*
X119184938Y-106512880D01*
X119105568Y-106321265D01*
X118990341Y-106148815D01*
X118843685Y-106002159D01*
X118843684Y-106002158D01*
X118671237Y-105886933D01*
X118671235Y-105886932D01*
X118479618Y-105807561D01*
X118276202Y-105767100D01*
X116603142Y-105767100D01*
X116558948Y-105748794D01*
X115491306Y-104681152D01*
X115473000Y-104636958D01*
X115473000Y-103750414D01*
X115491306Y-103706220D01*
X115535500Y-103687914D01*
X115579694Y-103706220D01*
X115701315Y-103827841D01*
X115873765Y-103943068D01*
X116065380Y-104022438D01*
X116268798Y-104062900D01*
X117941858Y-104062900D01*
X117986052Y-104081206D01*
X120384530Y-106479684D01*
X120384547Y-106479704D01*
X120459241Y-106554397D01*
X120459243Y-106554399D01*
X120501539Y-106571918D01*
X120552195Y-106592901D01*
X120660078Y-106592901D01*
X120660086Y-106592900D01*
X169689695Y-106592900D01*
X177712100Y-106592900D01*
X177756294Y-106611206D01*
X177774600Y-106655400D01*
X177774600Y-106853702D01*
X177815061Y-107057118D01*
X177894432Y-107248735D01*
X177894433Y-107248737D01*
X178009658Y-107421184D01*
X178009659Y-107421185D01*
X178156315Y-107567841D01*
X178328765Y-107683068D01*
X178520380Y-107762438D01*
X178723798Y-107802900D01*
X180731202Y-107802900D01*
X180934620Y-107762438D01*
X181126235Y-107683068D01*
X181298685Y-107567841D01*
X181445341Y-107421185D01*
X181560568Y-107248735D01*
X181639938Y-107057120D01*
X181680400Y-106853702D01*
X181680400Y-106646298D01*
X181639938Y-106442880D01*
X181560568Y-106251265D01*
X181445341Y-106078815D01*
X181298685Y-105932159D01*
X181298684Y-105932158D01*
X181126237Y-105816933D01*
X181126235Y-105816932D01*
X180934618Y-105737561D01*
X180731202Y-105697100D01*
X178723798Y-105697100D01*
X178520381Y-105737561D01*
X178328764Y-105816932D01*
X178328762Y-105816933D01*
X178156315Y-105932158D01*
X178156313Y-105932160D01*
X178019680Y-106068794D01*
X177975486Y-106087100D01*
X170012876Y-106087100D01*
X169968682Y-106068794D01*
X169955134Y-106048518D01*
X169954399Y-106046743D01*
X169922479Y-106014823D01*
X169879704Y-105972047D01*
X169879684Y-105972030D01*
X168926205Y-105018551D01*
X168907899Y-104974357D01*
X168907899Y-103568000D01*
X168926205Y-103523806D01*
X168970399Y-103505500D01*
X169211958Y-103505500D01*
X169256152Y-103523806D01*
X169543128Y-103810782D01*
X169561434Y-103854976D01*
X169556677Y-103878893D01*
X169480641Y-104062464D01*
X169442100Y-104256222D01*
X169442100Y-104453777D01*
X169480640Y-104647533D01*
X169497402Y-104688000D01*
X169556241Y-104830051D01*
X169573851Y-104856406D01*
X169657768Y-104981999D01*
X169665996Y-104994312D01*
X169805688Y-105134004D01*
X169969949Y-105243759D01*
X170152465Y-105319359D01*
X170346223Y-105357900D01*
X170543777Y-105357900D01*
X170737535Y-105319359D01*
X170920051Y-105243759D01*
X171084312Y-105134004D01*
X171224004Y-104994312D01*
X171333759Y-104830051D01*
X171409359Y-104647535D01*
X171447900Y-104453777D01*
X171447900Y-104256223D01*
X171409359Y-104062465D01*
X171409358Y-104062464D01*
X171409358Y-104062461D01*
X171333322Y-103878894D01*
X171333321Y-103831058D01*
X171346867Y-103810785D01*
X172356448Y-102801206D01*
X172400642Y-102782900D01*
X177712100Y-102782900D01*
X177756294Y-102801206D01*
X177774600Y-102845400D01*
X177774600Y-103043702D01*
X177815061Y-103247118D01*
X177894432Y-103438735D01*
X177894433Y-103438737D01*
X177993708Y-103587313D01*
X178009659Y-103611185D01*
X178156315Y-103757841D01*
X178328765Y-103873068D01*
X178520380Y-103952438D01*
X178723798Y-103992900D01*
X180731202Y-103992900D01*
X180934620Y-103952438D01*
X181126235Y-103873068D01*
X181298685Y-103757841D01*
X181445341Y-103611185D01*
X181560568Y-103438735D01*
X181639938Y-103247120D01*
X181680400Y-103043702D01*
X181680400Y-102836298D01*
X181639938Y-102632880D01*
X181560568Y-102441265D01*
X181445341Y-102268815D01*
X181298685Y-102122159D01*
X181298684Y-102122158D01*
X181126237Y-102006933D01*
X181126235Y-102006932D01*
X180934618Y-101927561D01*
X180731202Y-101887100D01*
X178723798Y-101887100D01*
X178520381Y-101927561D01*
X178328764Y-102006932D01*
X178328762Y-102006933D01*
X178156315Y-102122158D01*
X178156313Y-102122160D01*
X178019680Y-102258794D01*
X177975486Y-102277100D01*
X172327586Y-102277100D01*
X172327578Y-102277099D01*
X172320305Y-102277099D01*
X172219695Y-102277099D01*
X172219693Y-102277099D01*
X172181193Y-102293047D01*
X172153968Y-102304324D01*
X172126744Y-102315600D01*
X172126741Y-102315602D01*
X170989216Y-103453128D01*
X170945022Y-103471434D01*
X170921105Y-103466677D01*
X170737535Y-103390641D01*
X170543777Y-103352100D01*
X170346223Y-103352100D01*
X170152464Y-103390641D01*
X169968893Y-103466677D01*
X169921058Y-103466676D01*
X169900782Y-103453128D01*
X169562148Y-103114494D01*
X169562140Y-103114484D01*
X169485858Y-103038202D01*
X169485857Y-103038201D01*
X169431406Y-103015647D01*
X169431406Y-103015646D01*
X169431404Y-103015646D01*
X169392906Y-102999699D01*
X169392905Y-102999699D01*
X169292295Y-102999699D01*
X169285022Y-102999699D01*
X169285014Y-102999700D01*
X146144986Y-102999700D01*
X146144978Y-102999699D01*
X146137705Y-102999699D01*
X146037095Y-102999699D01*
X146037093Y-102999699D01*
X145998595Y-103015646D01*
X145998593Y-103015647D01*
X145971368Y-103026924D01*
X145944144Y-103038200D01*
X145944141Y-103038202D01*
X145870813Y-103111531D01*
X145601552Y-103380794D01*
X145557358Y-103399100D01*
X131930127Y-103399100D01*
X131885933Y-103380794D01*
X131867627Y-103336600D01*
X131885933Y-103292406D01*
X132072500Y-103105838D01*
X132072500Y-102474161D01*
X131625838Y-102027500D01*
X130994161Y-102027500D01*
X130547500Y-102474161D01*
X130547500Y-102474162D01*
X130547500Y-103105839D01*
X130734068Y-103292406D01*
X130752374Y-103336600D01*
X130734068Y-103380794D01*
X130689874Y-103399100D01*
X120864883Y-103399100D01*
X120820689Y-103380794D01*
X118879388Y-101439494D01*
X118879380Y-101439484D01*
X118803098Y-101363202D01*
X118803097Y-101363201D01*
X118748646Y-101340647D01*
X118748646Y-101340646D01*
X118748644Y-101340646D01*
X118710146Y-101324699D01*
X118710145Y-101324699D01*
X118609535Y-101324699D01*
X118602262Y-101324699D01*
X118602254Y-101324700D01*
X115962746Y-101324700D01*
X115962738Y-101324699D01*
X115955465Y-101324699D01*
X115854855Y-101324699D01*
X115854853Y-101324699D01*
X115816355Y-101340646D01*
X115816353Y-101340647D01*
X115789128Y-101351924D01*
X115761904Y-101363200D01*
X115761901Y-101363202D01*
X115005701Y-102119402D01*
X114989470Y-102158588D01*
X114989462Y-102158608D01*
X114989093Y-102159500D01*
X114967199Y-102212355D01*
X113174100Y-102212355D01*
X113174100Y-98518294D01*
X115319600Y-98518294D01*
X115319600Y-99881705D01*
X115319601Y-99881721D01*
X115334541Y-99976049D01*
X115334544Y-99976059D01*
X115392483Y-100089770D01*
X115482729Y-100180016D01*
X115596440Y-100237955D01*
X115596442Y-100237955D01*
X115596445Y-100237957D01*
X115596448Y-100237957D01*
X115596450Y-100237958D01*
X115690778Y-100252898D01*
X115690784Y-100252898D01*
X115690792Y-100252900D01*
X115690794Y-100252900D01*
X118854206Y-100252900D01*
X118854208Y-100252900D01*
X118899106Y-100245789D01*
X118948549Y-100237958D01*
X118948549Y-100237957D01*
X118948555Y-100237957D01*
X119062271Y-100180016D01*
X119152516Y-100089771D01*
X119210457Y-99976055D01*
X119211798Y-99967591D01*
X119225398Y-99881721D01*
X119225400Y-99881705D01*
X119225400Y-98837919D01*
X144093800Y-98837919D01*
X144093800Y-99888000D01*
X144961327Y-99888000D01*
X144940000Y-99967591D01*
X144940000Y-100112409D01*
X144961327Y-100192000D01*
X144093800Y-100192000D01*
X144093800Y-101242080D01*
X144093801Y-101242096D01*
X144128178Y-101459141D01*
X144128178Y-101459142D01*
X144196090Y-101668153D01*
X144196091Y-101668156D01*
X144295866Y-101863972D01*
X144425038Y-102041762D01*
X144425045Y-102041770D01*
X144580429Y-102197154D01*
X144580437Y-102197161D01*
X144758227Y-102326333D01*
X144954043Y-102426108D01*
X144954046Y-102426109D01*
X145163050Y-102494019D01*
X145338000Y-102521728D01*
X145338000Y-100568673D01*
X145417591Y-100590000D01*
X145562409Y-100590000D01*
X145642000Y-100568673D01*
X145642000Y-102521728D01*
X145816949Y-102494019D01*
X146025953Y-102426109D01*
X146025956Y-102426108D01*
X146221772Y-102326333D01*
X146399562Y-102197161D01*
X146399570Y-102197154D01*
X146554954Y-102041770D01*
X146554961Y-102041762D01*
X146684133Y-101863972D01*
X146783908Y-101668156D01*
X146783909Y-101668153D01*
X146851821Y-101459142D01*
X146851821Y-101459141D01*
X146886198Y-101242096D01*
X146886200Y-101242080D01*
X146886200Y-100192000D01*
X146018673Y-100192000D01*
X146040000Y-100112409D01*
X146040000Y-99967591D01*
X146018673Y-99888000D01*
X146886200Y-99888000D01*
X146886200Y-98849811D01*
X150244900Y-98849811D01*
X150244900Y-101230188D01*
X150244901Y-101230204D01*
X150275558Y-101423759D01*
X150275558Y-101423760D01*
X150336120Y-101610150D01*
X150336124Y-101610158D01*
X150425096Y-101784777D01*
X150540290Y-101943327D01*
X150540297Y-101943335D01*
X150678864Y-102081902D01*
X150678872Y-102081909D01*
X150734272Y-102122160D01*
X150837425Y-102197105D01*
X151012048Y-102286079D01*
X151198438Y-102346641D01*
X151280017Y-102359562D01*
X151391995Y-102377298D01*
X151392001Y-102377298D01*
X151392009Y-102377300D01*
X151392011Y-102377300D01*
X151587989Y-102377300D01*
X151587991Y-102377300D01*
X151781562Y-102346641D01*
X151967952Y-102286079D01*
X152142575Y-102197105D01*
X152301128Y-102081909D01*
X152439709Y-101943328D01*
X152554905Y-101784775D01*
X152643879Y-101610152D01*
X152704441Y-101423762D01*
X152735100Y-101230191D01*
X152735100Y-98977999D01*
X177632565Y-98977999D01*
X177632566Y-98978000D01*
X179147063Y-98978000D01*
X179127500Y-99051009D01*
X179127500Y-99208991D01*
X179147063Y-99282000D01*
X177632565Y-99282000D01*
X177653145Y-99411934D01*
X177653145Y-99411935D01*
X177711709Y-99592177D01*
X177711710Y-99592179D01*
X177797748Y-99761036D01*
X177909139Y-99914352D01*
X177909146Y-99914360D01*
X178043139Y-100048353D01*
X178043147Y-100048360D01*
X178196463Y-100159751D01*
X178365320Y-100245789D01*
X178365322Y-100245790D01*
X178545559Y-100304352D01*
X178545568Y-100304354D01*
X178732729Y-100333998D01*
X178732745Y-100334000D01*
X179575500Y-100334000D01*
X179575500Y-99710437D01*
X179648509Y-99730000D01*
X179806491Y-99730000D01*
X179879500Y-99710437D01*
X179879500Y-100334000D01*
X180722255Y-100334000D01*
X180722270Y-100333998D01*
X180909431Y-100304354D01*
X180909440Y-100304352D01*
X181089677Y-100245790D01*
X181089679Y-100245789D01*
X181258536Y-100159751D01*
X181411852Y-100048360D01*
X181411860Y-100048353D01*
X181545853Y-99914360D01*
X181545860Y-99914352D01*
X181657251Y-99761036D01*
X181743289Y-99592179D01*
X181743290Y-99592177D01*
X181801854Y-99411935D01*
X181801854Y-99411934D01*
X181822434Y-99282000D01*
X180307937Y-99282000D01*
X180327500Y-99208991D01*
X180327500Y-99051009D01*
X180307937Y-98978000D01*
X181822434Y-98978000D01*
X181822434Y-98977999D01*
X181801854Y-98848065D01*
X181801854Y-98848064D01*
X181743290Y-98667822D01*
X181743289Y-98667820D01*
X181657251Y-98498963D01*
X181545860Y-98345647D01*
X181545853Y-98345639D01*
X181411860Y-98211646D01*
X181411852Y-98211639D01*
X181258536Y-98100248D01*
X181089679Y-98014210D01*
X181089677Y-98014209D01*
X180909440Y-97955647D01*
X180909431Y-97955645D01*
X180722270Y-97926001D01*
X180722255Y-97926000D01*
X179879500Y-97926000D01*
X179879500Y-98549562D01*
X179806491Y-98530000D01*
X179648509Y-98530000D01*
X179575500Y-98549562D01*
X179575500Y-97926000D01*
X178732745Y-97926000D01*
X178732729Y-97926001D01*
X178545568Y-97955645D01*
X178545559Y-97955647D01*
X178365322Y-98014209D01*
X178365320Y-98014210D01*
X178196463Y-98100248D01*
X178043147Y-98211639D01*
X178043139Y-98211646D01*
X177909146Y-98345639D01*
X177909139Y-98345647D01*
X177797748Y-98498963D01*
X177711710Y-98667820D01*
X177711709Y-98667822D01*
X177653145Y-98848064D01*
X177653145Y-98848065D01*
X177632565Y-98977999D01*
X152735100Y-98977999D01*
X152735100Y-98849809D01*
X152704441Y-98656238D01*
X152643879Y-98469848D01*
X152554905Y-98295225D01*
X152439709Y-98136672D01*
X152439702Y-98136664D01*
X152301135Y-97998097D01*
X152301127Y-97998090D01*
X152142577Y-97882896D01*
X151967958Y-97793924D01*
X151967950Y-97793920D01*
X151781560Y-97733358D01*
X151588004Y-97702701D01*
X151587992Y-97702700D01*
X151587991Y-97702700D01*
X151392009Y-97702700D01*
X151392007Y-97702700D01*
X151391995Y-97702701D01*
X151198440Y-97733358D01*
X151198439Y-97733358D01*
X151012049Y-97793920D01*
X151012041Y-97793924D01*
X150837422Y-97882896D01*
X150678872Y-97998090D01*
X150678864Y-97998097D01*
X150540297Y-98136664D01*
X150540290Y-98136672D01*
X150425096Y-98295222D01*
X150336124Y-98469841D01*
X150336120Y-98469849D01*
X150275558Y-98656239D01*
X150275558Y-98656240D01*
X150244901Y-98849795D01*
X150244900Y-98849811D01*
X146886200Y-98849811D01*
X146886200Y-98837919D01*
X146886198Y-98837903D01*
X146851821Y-98620858D01*
X146851821Y-98620857D01*
X146783909Y-98411846D01*
X146783908Y-98411843D01*
X146684133Y-98216027D01*
X146554961Y-98038237D01*
X146554954Y-98038229D01*
X146399570Y-97882845D01*
X146399562Y-97882838D01*
X146221772Y-97753666D01*
X146025956Y-97653891D01*
X146025953Y-97653890D01*
X145816942Y-97585978D01*
X145642000Y-97558269D01*
X145642000Y-99511326D01*
X145562409Y-99490000D01*
X145417591Y-99490000D01*
X145338000Y-99511326D01*
X145338000Y-97558269D01*
X145337999Y-97558269D01*
X145163058Y-97585978D01*
X145163057Y-97585978D01*
X144954046Y-97653890D01*
X144954043Y-97653891D01*
X144758227Y-97753666D01*
X144580437Y-97882838D01*
X144580429Y-97882845D01*
X144425045Y-98038229D01*
X144425038Y-98038237D01*
X144295866Y-98216027D01*
X144196091Y-98411843D01*
X144196090Y-98411846D01*
X144128178Y-98620857D01*
X144128178Y-98620858D01*
X144093801Y-98837903D01*
X144093800Y-98837919D01*
X119225400Y-98837919D01*
X119225400Y-98518294D01*
X119225398Y-98518278D01*
X119210458Y-98423950D01*
X119210457Y-98423948D01*
X119210457Y-98423945D01*
X119210455Y-98423942D01*
X119210455Y-98423940D01*
X119152516Y-98310229D01*
X119062270Y-98219983D01*
X118948559Y-98162044D01*
X118948549Y-98162041D01*
X118854221Y-98147101D01*
X118854209Y-98147100D01*
X118854208Y-98147100D01*
X115690792Y-98147100D01*
X115690790Y-98147100D01*
X115690778Y-98147101D01*
X115596450Y-98162041D01*
X115596440Y-98162044D01*
X115482729Y-98219983D01*
X115392483Y-98310229D01*
X115334544Y-98423940D01*
X115334541Y-98423950D01*
X115319601Y-98518278D01*
X115319600Y-98518294D01*
X113174100Y-98518294D01*
X113174100Y-95530600D01*
X112703633Y-95530600D01*
X112659439Y-95512294D01*
X112641133Y-95468100D01*
X112659439Y-95423906D01*
X112683869Y-95408807D01*
X113370870Y-95179807D01*
X113390634Y-95176600D01*
X183765600Y-95176600D01*
X183809794Y-95194906D01*
G37*
%TD.AperFunction*%
%TD*%
M02*
